<svg xmlns="http://www.w3.org/2000/svg" viewBox="0 0 48 48" fill="none" data-icon="resume" data-category="recruitment">
  <defs>
    <linearGradient id="resume-grad" x1="0%" y1="0%" x2="100%" y2="100%">
      <stop offset="0%" style="stop-color:#4F46E5;stop-opacity:1"/>
      <stop offset="100%" style="stop-color:#7C3AED;stop-opacity:1"/>
    </linearGradient>
    <filter id="paper-shadow" x="-20%" y="-20%" width="140%" height="140%">
      <feDropShadow dx="0" dy="4" stdDeviation="3" flood-opacity="0.15"/>
    </filter>
  </defs>
  
  <!-- Document base -->
  <path d="M 10 6 L 10 42 Q 10 44 12 44 L 36 44 Q 38 44 38 42 L 38 14 L 30 14 Q 28 14 28 12 L 28 6 Z" 
        fill="white" stroke="url(#resume-grad)" stroke-width="2" filter="url(#paper-shadow)"/>
  
  <!-- Folded corner -->
  <path d="M 28 6 L 28 12 Q 28 14 30 14 L 38 14 Z" fill="url(#resume-grad)" opacity="0.2"/>
  <path d="M 28 6 L 38 14" stroke="url(#resume-grad)" stroke-width="2" stroke-linecap="round"/>
  
  <!-- Profile section -->
  <circle cx="19" cy="18" r="3" fill="url(#resume-grad)" opacity="0.8"/>
  <path d="M 14 26 C 14 23 16 21 19 21 C 22 21 24 23 24 26" stroke="url(#resume-grad)" stroke-width="1.5" stroke-linecap="round"/>
  
  <!-- Text lines with animation -->
  <g class="resume-content">
    <rect x="28" y="16" width="8" height="2" rx="1" fill="url(#resume-grad)" opacity="0.6">
      <animate attributeName="width" values="8;10;8" dur="3s" repeatCount="indefinite"/>
    </rect>
    <rect x="28" y="20" width="6" height="2" rx="1" fill="url(#resume-grad)" opacity="0.4">
      <animate attributeName="width" values="6;8;6" dur="3s" begin="0.2s" repeatCount="indefinite"/>
    </rect>
    
    <!-- Skills section -->
    <rect x="14" y="30" width="20" height="1.5" rx="0.75" fill="url(#resume-grad)" opacity="0.5"/>
    <rect x="14" y="33" width="18" height="1.5" rx="0.75" fill="url(#resume-grad)" opacity="0.4"/>
    <rect x="14" y="36" width="16" height="1.5" rx="0.75" fill="url(#resume-grad)" opacity="0.3"/>
    <rect x="14" y="39" width="14" height="1.5" rx="0.75" fill="url(#resume-grad)" opacity="0.2"/>
  </g>
  
  <!-- Quality badge -->
  <g transform="translate(34, 34)">
    <circle r="5" fill="#10B981"/>
    <path d="M -2 0 L -0.5 1.5 L 2 -1" stroke="white" stroke-width="1.5" stroke-linecap="round" stroke-linejoin="round"/>
  </g>
</svg>